<svg width="512" height="512" viewBox="0 0 512 512" fill="none" xmlns="http://www.w3.org/2000/svg">
<g clip-path="url(#clip0_5_23)">
<path d="M331.071 234.502C301.671 278.542 287.839 328.709 287.839 328.709L258.241 325.455L228.645 328.711C228.645 328.711 214.812 278.542 185.412 234.502C156.012 190.462 60.2691 140.999 101.298 76.8872C142.329 12.7497 210.031 91.5593 210.031 91.5593C207.302 3.47503 258.241 0 258.241 0C258.241 0 309.181 3.47503 306.452 91.555C306.452 91.555 374.152 12.7454 415.185 76.8829C456.214 140.997 360.471 190.462 331.071 234.502Z" fill="#A9CF54"/>
<path d="M252.109 326.128L228.64 328.7C228.64 328.7 214.812 278.54 185.414 234.5C157.122 192.129 67.4293 144.751 97.2177 84.1147C126.083 99.2964 156.57 118.581 176.859 140.229C213.415 179.265 252.109 229.832 252.109 326.128Z" fill="#92B83D"/>
<path d="M379.833 94.9419C376.104 85.9769 366.643 82.1191 358.716 86.3425C357.502 86.9876 328.631 102.565 299.988 138.99C291.479 149.811 282.446 163.251 274.113 179.431V67.5007C274.113 57.596 267.008 49.5686 258.241 49.5686C249.475 49.5686 242.37 57.596 242.37 67.5007V179.444C234.035 163.26 225.001 149.813 216.489 138.99C187.846 102.565 158.977 86.9876 157.761 86.3425C149.851 82.1384 140.439 85.9747 136.69 94.901C132.942 103.827 136.319 114.513 144.21 118.775C144.459 118.91 169.31 132.55 193.674 163.984C225.983 205.67 242.366 257.606 242.366 318.348C242.366 328.253 249.471 336.28 258.238 336.28H258.241H258.245C267.012 336.28 274.117 328.253 274.117 318.348C274.117 257.604 290.5 205.668 322.809 163.984C347.115 132.621 371.908 118.972 372.269 118.777C380.168 114.545 383.556 103.888 379.833 94.9419Z" fill="#7C9E2F"/>
<path d="M258.241 1101C227.793 1101 201.885 1075.88 197.197 1041.82L123.171 503.867C110.257 410.019 174.355 325.261 258.241 325.261C342.127 325.261 406.227 410.019 393.311 503.867L319.286 1041.82C314.598 1075.88 288.69 1101 258.241 1101Z" fill="#E86F22"/>
<path d="M260.889 1100.93C260.006 1100.98 259.125 1101 258.241 1101C227.715 1101 201.763 1075.87 197.043 1041.8L122.861 503.748C116.338 456.369 129.446 411.312 154.866 378.327C154.025 391.818 154.518 405.68 156.446 419.703L244.825 1060.6C246.938 1075.9 252.642 1089.69 260.889 1100.93Z" fill="#C9571E"/>
<ellipse cx="209.14" cy="457.35" rx="16.6191" ry="25.1963" fill="black"/>
<ellipse cx="298.278" cy="457.35" rx="16.6191" ry="25.1963" fill="black"/>
<ellipse cx="210.65" cy="446.661" rx="7.55413" ry="9.9258" fill="#D9D9D9"/>
<ellipse cx="299.789" cy="446.661" rx="7.55413" ry="9.9258" fill="#D9D9D9"/>
</g>
<defs>
<clipPath id="clip0_5_23">
<rect width="512" height="512" fill="white"/>
</clipPath>
</defs>
</svg>
